<svg id="Ebene_1" data-name="Ebene 1" xmlns="http://www.w3.org/2000/svg" viewBox="0 0 100 91.09"><defs><style>.cls-1{fill:#151515;}</style></defs><title>arrow</title><path class="cls-1" d="M690.92,427.44l39.24-39.23A10,10,0,1,0,716,374L683.1,406.86,650.24,374a10,10,0,0,0-14.2,14.2l39.23,39.23a12,12,0,0,0,15.65,0Z" transform="translate(-633.1 -339.29)"/><path class="cls-1" d="M683.1,383.45a10,10,0,0,0,7.1-2.94l24.07-24.08a10,10,0,1,0-14.2-14.2l-17,17-17-17a10,10,0,1,0-14.21,14.2L676,380.51A10,10,0,0,0,683.1,383.45Z" transform="translate(-633.1 -339.29)"/></svg>